<svg width="24" height="24" viewBox="0 0 24 24" fill="none" xmlns="http://www.w3.org/2000/svg">
<path d="M17.58 17.7298C19.81 16.2698 21.25 14.0698 21.25 12.1398C21.25 8.85984 17.11 4.83984 12 4.83984C9.91 4.83984 7.97 5.50984 6.41 6.54984" stroke="#3C50E0" stroke-width="1.5" stroke-linecap="round" stroke-linejoin="round"/>
<path d="M4.15031 8.61023C3.25931 9.74023 2.74031 10.9902 2.74031 12.1402C2.74031 15.4202 6.89031 19.4402 12.0003 19.4402C12.9103 19.4402 13.7993 19.3102 14.6303 19.0802" stroke="#3C50E0" stroke-width="1.5" stroke-linecap="round" stroke-linejoin="round"/>
<path d="M14.2343 14.3671C14.8293 13.7781 15.1623 12.9751 15.1593 12.1381C15.1633 10.3931 13.7513 8.97505 12.0053 8.97205C11.1653 8.97005 10.3593 9.30305 9.76531 9.89705" stroke="#3C50E0" stroke-width="1.5" stroke-linecap="round" stroke-linejoin="round"/>
<path d="M8.89049 12.6991C9.12449 13.9911 10.1355 15.0041 11.4275 15.2411" stroke="#3C50E0" stroke-width="1.5" stroke-linecap="round" stroke-linejoin="round"/>
</svg>
