<svg width="24" height="24" viewBox="0 0 24 24" fill="none" xmlns="http://www.w3.org/2000/svg">
<path fill-rule="evenodd" clip-rule="evenodd" d="M12.1555 21.6619C15.8473 21.6619 19 21.0874 19 18.7867C19 16.4859 15.8673 14.3619 12.1555 14.3619C8.46364 14.3619 5.31091 16.4653 5.31091 18.7661C5.31091 21.0659 8.44364 21.6619 12.1555 21.6619Z" stroke="#3C50E0" stroke-width="1.5" stroke-linecap="round" stroke-linejoin="round"/>
<path fill-rule="evenodd" clip-rule="evenodd" d="M12.1627 11.1737C9.73996 11.1737 7.77632 9.21003 7.77632 6.7873C7.77632 4.36457 9.73996 2.40002 12.1627 2.40002C14.5854 2.40002 16.55 4.36457 16.55 6.7873C16.5581 9.20184 14.6081 11.1655 12.1936 11.1737C12.1827 11.1737 12.1727 11.1737 12.1627 11.1737Z" stroke="#3C50E0" stroke-width="1.5" stroke-linecap="round" stroke-linejoin="round"/>
</svg>
