<svg width="24" height="24" viewBox="0 0 24 24" fill="none" xmlns="http://www.w3.org/2000/svg">
<path d="M2.55438 8.19332L10.7268 4.1301C10.8054 4.0911 10.892 4.0708 10.9798 4.0708C11.0675 4.0708 11.1541 4.0911 11.2327 4.1301L19.4051 8.19426C19.4991 8.24106 19.5781 8.31295 19.6334 8.40189C19.6886 8.49082 19.7179 8.59329 19.7179 8.69782C19.7179 8.80235 19.6886 8.90482 19.6334 8.99375C19.5781 9.08269 19.4991 9.15458 19.4051 9.20138L11.2327 13.2646C11.1541 13.3036 11.0675 13.3239 10.9798 13.3239C10.892 13.3239 10.8054 13.3036 10.7268 13.2646L2.55438 9.20044C2.46039 9.15364 2.38136 9.08175 2.32613 8.99281C2.27089 8.90388 2.24164 8.80141 2.24164 8.69688C2.24164 8.59235 2.27089 8.48988 2.32613 8.40095C2.38136 8.31201 2.46039 8.24012 2.55438 8.19332Z" stroke="#3C50E0" stroke-width="1.5" stroke-linecap="round" stroke-linejoin="round"/>
<path d="M21.3617 12.4517V9.16663L19.4741 8.22803M4.37317 10.1052V15.185C4.3731 15.5401 4.47433 15.888 4.66512 16.1882C4.85591 16.4884 5.12841 16.7287 5.451 16.881L10.17 19.1093C10.4231 19.2288 10.6997 19.2908 10.9798 19.2908C11.26 19.2908 11.5366 19.2288 11.7896 19.1093L16.5087 16.881C16.8312 16.7287 17.1037 16.4884 17.2945 16.1882C17.4853 15.888 17.5866 15.5401 17.5865 15.185V10.1052" stroke="#3C50E0" stroke-width="1.5" stroke-linecap="round" stroke-linejoin="round"/>
</svg>
