<svg width="25" height="25" viewBox="0 0 25 25" fill="none" xmlns="http://www.w3.org/2000/svg">
<g clip-path="url(#clip0_501_4907)">
<path d="M18.5274 9.00187C20.3514 10.1523 22.5859 10.8292 24.9993 10.8292V6.73178C24.5425 6.73187 24.087 6.6898 23.6401 6.60627V9.83152C21.227 9.83152 18.9927 9.15471 17.1683 8.00437V16.3661C17.1683 20.5491 13.3249 23.9398 8.58428 23.9398C6.81544 23.9398 5.1713 23.468 3.80557 22.6588C5.36436 24.0651 7.53819 24.9374 9.94307 24.9374C14.6841 24.9374 18.5275 21.5467 18.5275 17.3635V9.00187H18.5274ZM20.2041 4.86808C19.2719 3.96954 18.6598 2.80833 18.5274 1.52454V0.997559H17.2394C17.5636 2.6292 18.6695 4.02316 20.2041 4.86808ZM6.80401 19.4489C6.2832 18.8465 6.00167 18.1094 6.00294 17.3515C6.00294 15.4384 7.76085 13.8872 9.92969 13.8872C10.3338 13.887 10.7356 13.9418 11.1208 14.0495V9.86049C10.6706 9.80609 10.2163 9.7829 9.76221 9.79144V13.052C9.37679 12.9441 8.97483 12.8894 8.57051 12.8897C6.40176 12.8897 4.64395 14.4407 4.64395 16.3541C4.64395 17.707 5.52256 18.8783 6.80401 19.4489Z" fill="#FF004F"/>
<path d="M17.1682 8.00428C18.9928 9.15463 21.2268 9.83144 23.6401 9.83144V6.60618C22.2931 6.35299 21.1006 5.73196 20.204 4.86808C18.6693 4.02308 17.5636 2.62911 17.2393 0.997559H13.8562V17.3633C13.8485 19.2713 12.0936 20.8161 9.92948 20.8161C8.65428 20.8161 7.52128 20.2798 6.8038 19.4489C5.52255 18.8783 4.64384 17.707 4.64384 16.3542C4.64384 14.441 6.40165 12.8898 8.5704 12.8898C8.98593 12.8898 9.38641 12.9469 9.7621 13.052V9.79152C5.10467 9.87644 1.35907 13.234 1.35907 17.3634C1.35907 19.4248 2.29178 21.2935 3.80565 22.6589C5.17137 23.468 6.81542 23.94 8.58436 23.94C13.3251 23.94 17.1683 20.549 17.1683 16.3661V8.00437L17.1682 8.00428Z" fill="black"/>
<path d="M23.6401 6.60603V5.73414C22.4254 5.73576 21.2346 5.43562 20.204 4.86802C21.1163 5.74924 22.3176 6.35692 23.6401 6.60621V6.60603ZM17.2393 0.997414C17.2084 0.841518 17.1846 0.684578 17.1682 0.526983V0H12.4969V16.3659C12.4895 18.2737 10.7346 19.8185 8.57031 19.8185C7.95676 19.8193 7.3516 19.6927 6.80371 19.449C7.52119 20.2797 8.6542 20.8159 9.92939 20.8159C12.0935 20.8159 13.8485 19.2713 13.8562 17.3634V0.9975H17.2393V0.997414ZM9.76231 9.79138V8.86302C9.37197 8.81592 8.97844 8.79236 8.58447 8.7925C3.84326 8.7925 0 12.1834 0 16.3659C0 18.9883 1.51045 21.2993 3.80576 22.6587C2.29189 21.2934 1.35918 19.4246 1.35918 17.3633C1.35918 13.234 5.10469 9.87629 9.76231 9.79138Z" fill="#00F2EA"/>
</g>
<defs>
<clipPath id="clip0_501_4907">
<rect width="25" height="25" fill="white"/>
</clipPath>
</defs>
</svg>
