<svg width="25" height="25" viewBox="0 0 25 25" fill="none" xmlns="http://www.w3.org/2000/svg">
<g clip-path="url(#clip0_501_4911)">
<path d="M12.5 0C9.18555 0 6.00391 1.31777 3.66211 3.66113C1.3179 6.00542 0.000649355 9.18473 0 12.5C0 15.8139 1.31836 18.9955 3.66211 21.3389C6.00391 23.6822 9.18555 25 12.5 25C15.8145 25 18.9961 23.6822 21.3379 21.3389C23.6816 18.9955 25 15.8139 25 12.5C25 9.18613 23.6816 6.00449 21.3379 3.66113C18.9961 1.31777 15.8145 0 12.5 0Z" fill="url(#paint0_linear_501_4911)"/>
<path d="M5.65819 12.3679C9.30272 10.7804 11.7324 9.73374 12.9473 9.22808C16.4199 7.78413 17.1406 7.53335 17.6113 7.52485C17.7148 7.52319 17.9453 7.54878 18.0957 7.67036C18.2207 7.7729 18.2558 7.91157 18.2734 8.00894C18.289 8.1062 18.3105 8.32788 18.293 8.50093C18.1055 10.4775 17.291 15.274 16.8769 17.4878C16.7031 18.4246 16.3574 18.7386 16.0234 18.7693C15.2969 18.8361 14.7461 18.2896 14.043 17.8289C12.9433 17.1076 12.3223 16.6587 11.2539 15.955C10.0195 15.1417 10.8203 14.6947 11.5234 13.9642C11.707 13.773 14.9062 10.8638 14.9668 10.6C14.9746 10.5669 14.9824 10.4439 14.9082 10.3791C14.8359 10.314 14.7285 10.3363 14.6504 10.3539C14.5391 10.3789 12.7832 11.5406 9.37694 13.8388C8.87889 14.1814 8.42772 14.3484 8.02147 14.3396C7.57616 14.33 6.71678 14.0873 6.07811 13.8798C5.29686 13.6253 4.67382 13.4908 4.7285 13.0585C4.75585 12.8335 5.06639 12.6033 5.65819 12.3679Z" fill="white"/>
</g>
<defs>
<linearGradient id="paint0_linear_501_4911" x1="1250" y1="0" x2="1250" y2="2500" gradientUnits="userSpaceOnUse">
<stop stop-color="#2AABEE"/>
<stop offset="1" stop-color="#229ED9"/>
</linearGradient>
<clipPath id="clip0_501_4911">
<rect width="25" height="25" fill="white"/>
</clipPath>
</defs>
</svg>
