<svg width="19" height="18" viewBox="0 0 19 18" fill="none" xmlns="http://www.w3.org/2000/svg">
<path d="M8.20704 4.35656L3.73798 12.0938C3.55151 12.4167 3.50098 12.8006 3.5975 13.1608C3.69402 13.5211 3.92969 13.8282 4.25267 14.0147L8.51642 16.4784C8.4234 16.2468 8.37567 15.9996 8.37579 15.75V6.81469C8.37534 6.01327 8.68588 5.24295 9.24204 4.66594L11.0364 2.8125L9.69767 3.18938C9.06852 3.37098 8.53424 3.78933 8.20704 4.35656ZM1.86486 9.44438C1.60122 9.70809 1.45312 10.0657 1.45313 10.4386C1.45312 10.8115 1.60122 11.1691 1.86486 11.4328L2.98986 12.5578C3.0258 12.2943 3.11478 12.0407 3.25142 11.8125C3.90673 10.6875 6.80361 5.66156 8.37579 2.96156C8.18736 3.10781 8.53048 2.78438 1.86486 9.44438ZM12.7942 10.9688H12.8758V9.84375H12.7942C12.645 9.84375 12.502 9.90301 12.3965 10.0085C12.291 10.114 12.2317 10.2571 12.2317 10.4062C12.2317 10.5554 12.291 10.6985 12.3965 10.804C12.502 10.9095 12.645 10.9688 12.7942 10.9688Z" fill="#3C50E0"/>
<path d="M14.8438 0.807129C14.7306 1.46921 14.4454 2.08993 14.0169 2.60713C13.8858 2.47233 13.7291 2.36518 13.5559 2.29201C13.3827 2.21884 13.1966 2.18114 13.0086 2.18114C12.8206 2.18114 12.6345 2.21884 12.4613 2.29201C12.2881 2.36518 12.1314 2.47233 12.0003 2.60713L9.64625 5.06244C9.19262 5.53308 8.93865 6.16096 8.9375 6.81463V15.7499C8.9375 16.1229 9.08566 16.4806 9.34938 16.7443C9.6131 17.008 9.97079 17.1562 10.3438 17.1562H15.6875C16.0605 17.1562 16.4181 17.008 16.6819 16.7443C16.9456 16.4806 17.0938 16.1229 17.0938 15.7499V6.81463C17.0926 6.16096 16.8386 5.53308 16.385 5.06244L14.8072 3.42557C14.4546 3.80936 14.024 4.11334 13.5444 4.31713C13.5098 4.4143 13.4492 4.50011 13.3692 4.56517C13.2892 4.63022 13.1928 4.67202 13.0906 4.686C12.9884 4.69998 12.8844 4.68559 12.7898 4.64442C12.6952 4.60324 12.6138 4.53686 12.5545 4.45253C12.4951 4.36821 12.46 4.26918 12.4531 4.16627C12.4462 4.06337 12.4678 3.96055 12.5154 3.86906C12.563 3.77757 12.6348 3.70092 12.7231 3.64751C12.8113 3.59409 12.9125 3.56596 13.0156 3.56619C13.0936 3.56677 13.1707 3.58357 13.2419 3.61552C13.313 3.64748 13.3768 3.6939 13.4291 3.75182C13.6019 3.67429 13.7667 3.58009 13.9213 3.47057C14.0983 3.3375 14.2639 3.1898 14.4162 3.029C14.942 2.4192 15.2852 1.67346 15.4062 0.877441L14.8438 0.807129ZM12.7934 9.28119H12.875V8.59775H13.4375V9.28119H13.5191C13.8174 9.28119 14.1036 9.39972 14.3146 9.6107C14.5255 9.82168 14.6441 10.1078 14.6441 10.4062H14.0816C14.0816 10.257 14.0223 10.1139 13.9168 10.0084C13.8113 9.90295 13.6682 9.84369 13.5191 9.84369H13.4375V10.9687H13.5191C13.8174 10.9687 14.1036 11.0872 14.3146 11.2982C14.5255 11.5092 14.6441 11.7953 14.6441 12.0937C14.6441 12.3921 14.5255 12.6782 14.3146 12.8892C14.1036 13.1002 13.8174 13.2187 13.5191 13.2187H13.4375V13.9021H12.875V13.2187H12.7934C12.4951 13.2187 12.2089 13.1002 11.9979 12.8892C11.787 12.6782 11.6684 12.3921 11.6684 12.0937H12.2309C12.2309 12.2429 12.2902 12.386 12.3957 12.4914C12.5012 12.5969 12.6443 12.6562 12.7934 12.6562H12.875V11.5312H12.7934C12.4951 11.5312 12.2089 11.4127 11.9979 11.2017C11.787 10.9907 11.6684 10.7046 11.6684 10.4062C11.6684 10.1078 11.787 9.82168 11.9979 9.6107C12.2089 9.39972 12.4951 9.28119 12.7934 9.28119Z" fill="#3C50E0"/>
<path d="M14.0816 12.0938C14.0816 11.9446 14.0223 11.8015 13.9168 11.696C13.8113 11.5905 13.6682 11.5312 13.5191 11.5312H13.4375V12.6562H13.5191C13.6682 12.6562 13.8113 12.597 13.9168 12.4915C14.0223 12.386 14.0816 12.2429 14.0816 12.0938Z" fill="#3C50E0"/>
</svg>
