<svg width="25" height="25" viewBox="0 0 25 25" fill="none" xmlns="http://www.w3.org/2000/svg">
<path d="M12.5 25C19.4036 25 25 19.4036 25 12.5C25 5.59644 19.4036 0 12.5 0C5.59645 0 0 5.59644 0 12.5C0 19.4036 5.59645 25 12.5 25Z" fill="#5A99EC"/>
<path d="M9.98149 19.7036C16.0926 19.7036 19.4259 14.648 19.4259 10.2591C19.4259 10.111 19.4259 9.98134 19.4074 9.8332C20.0556 9.37023 20.6111 8.77764 21.0556 8.11097C20.463 8.37023 19.8148 8.55542 19.1482 8.62949C19.8333 8.22209 20.3519 7.57394 20.6111 6.79616C19.963 7.18505 19.2593 7.44431 18.5 7.61097C17.8889 6.96283 17.0371 6.55542 16.0741 6.55542C14.2408 6.55542 12.7593 8.0369 12.7593 9.87023C12.7593 10.1295 12.7963 10.3887 12.8519 10.6295C10.0926 10.4999 7.64817 9.16653 6.01854 7.16653C5.74076 7.64801 5.5741 8.22209 5.5741 8.8332C5.5741 9.98134 6.1667 10.9999 7.05558 11.5925C6.51855 11.5739 6.00002 11.4258 5.55558 11.185C5.55558 11.2036 5.55558 11.2036 5.55558 11.2221C5.55558 12.8332 6.70372 14.1665 8.22224 14.4813C7.94446 14.5554 7.64817 14.5925 7.35188 14.5925C7.12965 14.5925 6.92595 14.5739 6.72224 14.5369C7.14817 15.8517 8.3704 16.8147 9.81485 16.8332C8.68522 17.7221 7.24076 18.2591 5.68521 18.2591C5.42595 18.2591 5.14818 18.2406 4.88892 18.2221C6.35188 19.1665 8.11113 19.7036 9.98149 19.7036Z" fill="white"/>
</svg>
