<svg width="19" height="18" viewBox="0 0 19 18" fill="none" xmlns="http://www.w3.org/2000/svg">
<path d="M14 1.5H5C3.755 1.5 2.75 2.4975 2.75 3.7275V11.91C2.75 13.14 3.755 14.1375 5 14.1375H5.57C6.17 14.1375 6.74 14.37 7.16 14.79L8.4425 16.0575C9.0275 16.635 9.98 16.635 10.565 16.0575L11.8475 14.79C12.2675 14.37 12.845 14.1375 13.4375 14.1375H14C15.245 14.1375 16.25 13.14 16.25 11.91V3.7275C16.25 2.4975 15.245 1.5 14 1.5ZM9.5 4.3125C10.4675 4.3125 11.2475 5.0925 11.2475 6.06C11.2475 7.0275 10.4675 7.8075 9.5 7.8075C8.5325 7.8075 7.7525 7.02 7.7525 6.06C7.7525 5.0925 8.5325 4.3125 9.5 4.3125ZM11.51 11.295H7.49C6.8825 11.295 6.53 10.62 6.8675 10.1175C7.3775 9.36 8.3675 8.85 9.5 8.85C10.6325 8.85 11.6225 9.36 12.1325 10.1175C12.47 10.62 12.11 11.295 11.51 11.295Z" fill="#3C50E0"/>
</svg>
