<svg width="20" height="23" viewBox="0 0 20 23" fill="none" xmlns="http://www.w3.org/2000/svg">
<path d="M20 7.125V18.375C20 19.4297 19.1406 20.25 18.125 20.25H1.875C0.820312 20.25 0 19.4297 0 18.375V7.125C0 6.10938 0.820312 5.25 1.875 5.25H5.3125L5.78125 4C6.05469 3.25781 6.75781 2.75 7.53906 2.75H12.4219C13.2031 2.75 13.9062 3.25781 14.1797 4L14.6875 5.25H18.125C19.1406 5.25 20 6.10938 20 7.125ZM14.6875 12.75C14.6875 10.1719 12.5781 8.0625 10 8.0625C7.38281 8.0625 5.3125 10.1719 5.3125 12.75C5.3125 15.3672 7.38281 17.4375 10 17.4375C12.5781 17.4375 14.6875 15.3672 14.6875 12.75ZM13.4375 12.75C13.4375 14.6641 11.875 16.1875 10 16.1875C8.08594 16.1875 6.5625 14.6641 6.5625 12.75C6.5625 10.875 8.08594 9.3125 10 9.3125C11.875 9.3125 13.4375 10.875 13.4375 12.75Z" fill="#3C50E0"/>
</svg>
