<svg width="20" height="23" viewBox="0 0 20 23" fill="none" xmlns="http://www.w3.org/2000/svg">
<path d="M12.9688 14C12.7344 14 12.5 13.7656 12.5 13.5312V8.25781C12.5 8.02344 12.7344 7.75 12.9688 7.75H14.4922C14.7266 7.75 15 8.02344 15 8.25781V13.5312C15 13.7656 14.7266 14 14.4922 14H12.9688ZM16.7188 14C16.4844 14 16.25 13.7656 16.25 13.5312V4.50781C16.25 4.27344 16.4844 4 16.7188 4H18.2422C18.4766 4 18.75 4.27344 18.75 4.50781V13.5312C18.75 13.7656 18.4766 14 18.2422 14H16.7188ZM5.46875 14C5.23438 14 5 13.7656 5 13.5312V10.7578C5 10.5234 5.23438 10.25 5.46875 10.25H6.99219C7.22656 10.25 7.5 10.5234 7.5 10.7578V13.5312C7.5 13.7656 7.22656 14 6.99219 14H5.46875ZM9.21875 14C8.98438 14 8.75 13.7656 8.75 13.5312V5.75781C8.75 5.52344 8.98438 5.25 9.21875 5.25H10.7422C10.9766 5.25 11.25 5.52344 11.25 5.75781V13.5312C11.25 13.7656 10.9766 14 10.7422 14H9.21875ZM19.375 16.5C19.6875 16.5 20 16.8125 20 17.125V18.375C20 18.7266 19.6875 19 19.375 19H1.25C0.546875 19 0 18.4531 0 17.75V4.625C0 4.3125 0.273438 4 0.625 4H1.875C2.1875 4 2.5 4.3125 2.5 4.625V16.5H19.375Z" fill="#3C50E0"/>
</svg>
