<svg width="22" height="23" viewBox="0 0 22 23" fill="none" xmlns="http://www.w3.org/2000/svg">
<path d="M18.8906 11.5L20.6875 13.2578C21.2344 13.7656 20.9609 14.6641 20.2578 14.8594L17.8359 15.4844L18.5 17.9062C18.6953 18.6094 18.0703 19.2344 17.3672 19.0391L14.9453 18.375L14.3203 20.7969C14.125 21.5391 13.2266 21.7734 12.7188 21.2266L11 19.4297L9.24219 21.2266C8.73438 21.7344 7.83594 21.5391 7.64062 20.7969L7.01562 18.375L4.59375 19.0391C3.89062 19.2344 3.26562 18.6094 3.46094 17.9062L4.125 15.4844L1.70312 14.8594C1 14.6641 0.726562 13.7656 1.27344 13.2578L3.07031 11.5L1.27344 9.74219C0.726562 9.23438 1 8.33594 1.70312 8.17969L4.125 7.55469L3.46094 5.13281C3.26562 4.42969 3.89062 3.76562 4.59375 3.96094L7.01562 4.66406L7.64062 2.20312C7.79688 1.5 8.73438 1.26562 9.24219 1.8125L11 3.60938L12.7188 1.8125C13.2266 1.26562 14.1641 1.53906 14.3203 2.20312L14.9453 4.66406L17.3672 3.96094C18.0703 3.76562 18.6953 4.42969 18.5 5.13281L17.8359 7.55469L20.2578 8.17969C20.9609 8.33594 21.2344 9.23438 20.6875 9.74219L18.8906 11.5Z" fill="#3C50E0"/>
</svg>
