<svg width="15" height="23" viewBox="0 0 15 23" fill="none" xmlns="http://www.w3.org/2000/svg">
<path d="M8.75 6.8125C8.75 7.35938 9.14062 7.75 9.6875 7.75H15V20.5625C15 21.1094 14.5703 21.5 14.0625 21.5H0.9375C0.390625 21.5 0 21.1094 0 20.5625V2.4375C0 1.92969 0.390625 1.5 0.9375 1.5H8.75V6.8125ZM11.25 16.0312V15.7188C11.25 15.4844 11.0156 15.25 10.7812 15.25H4.21875C3.94531 15.25 3.75 15.4844 3.75 15.7188V16.0312C3.75 16.3047 3.94531 16.5 4.21875 16.5H10.7812C11.0156 16.5 11.25 16.3047 11.25 16.0312ZM11.25 13.5312V13.2188C11.25 12.9844 11.0156 12.75 10.7812 12.75H4.21875C3.94531 12.75 3.75 12.9844 3.75 13.2188V13.5312C3.75 13.8047 3.94531 14 4.21875 14H10.7812C11.0156 14 11.25 13.8047 11.25 13.5312ZM11.25 10.7188C11.25 10.4844 11.0156 10.25 10.7812 10.25H4.21875C3.94531 10.25 3.75 10.4844 3.75 10.7188V11.0312C3.75 11.3047 3.94531 11.5 4.21875 11.5H10.7812C11.0156 11.5 11.25 11.3047 11.25 11.0312V10.7188ZM15 6.26562V6.5H10V1.5H10.2344C10.4688 1.5 10.7031 1.61719 10.8984 1.77344L14.7266 5.60156C14.8828 5.79688 15 6.03125 15 6.26562Z" fill="#3C50E0"/>
</svg>
